<?xml version="1.0" standalone="no"?>
<!DOCTYPE svg PUBLIC "-//W3C//DTD SVG 20010904//EN"
 "http://www.w3.org/TR/2001/REC-SVG-20010904/DTD/svg10.dtd">
<svg version="1.0" xmlns="http://www.w3.org/2000/svg"
 width="260.000000pt" height="260.000000pt" viewBox="0 0 260.000000 260.000000"
 preserveAspectRatio="xMidYMid meet">
<metadata>
Created by potrace 1.11, written by Peter Selinger 2001-2013
</metadata>
<g transform="translate(0.000000,260.000000) scale(0.100000,-0.100000)"
fill="#000000" stroke="none">
<path d="M1250 2584 c0 -8 -4 -13 -9 -10 -5 4 -7 -4 -3 -16 4 -16 2 -19 -8
-13 -10 6 -12 4 -7 -9 6 -14 3 -17 -9 -12 -14 5 -15 4 -4 -9 10 -12 9 -15 -6
-15 -15 0 -16 -2 -5 -9 10 -6 10 -10 1 -16 -6 -4 -9 -14 -6 -22 3 -8 1 -11 -4
-8 -6 3 -10 1 -10 -5 0 -6 -4 -9 -8 -6 -5 3 -9 -1 -9 -9 0 -8 5 -11 11 -8 6 4
3 -3 -7 -15 -12 -12 -16 -26 -11 -34 6 -11 5 -11 -8 0 -13 10 -15 9 -12 -14 2
-18 -2 -24 -11 -20 -9 3 -12 -1 -10 -15 2 -10 0 -19 -4 -19 -5 0 -8 -8 -7 -17
0 -10 -5 -17 -12 -15 -8 1 -11 -2 -8 -7 4 -5 1 -13 -5 -17 -8 -5 -8 -8 0 -14
9 -5 7 -11 -5 -21 -12 -9 -15 -10 -10 -1 11 18 1 15 -15 -5 -10 -11 -10 -14
-1 -9 17 10 15 -10 -4 -28 -9 -9 -11 -16 -4 -16 6 0 8 -5 5 -10 -4 -6 -10 -8
-13 -6 -4 2 -12 -7 -19 -20 -6 -13 -7 -22 -2 -18 5 3 9 0 9 -5 0 -6 -8 -11
-17 -11 -15 0 -16 -2 -3 -10 13 -8 12 -10 -2 -10 -10 0 -18 -5 -18 -11 0 -5 6
-7 13 -3 6 4 4 -2 -6 -14 -11 -12 -16 -26 -11 -33 4 -8 3 -10 -4 -5 -7 4 -12
2 -12 -4 0 -6 -4 -9 -9 -6 -4 3 -7 -6 -5 -20 2 -20 -1 -24 -13 -20 -13 5 -14
4 -3 -9 8 -10 9 -15 1 -15 -6 0 -13 -11 -17 -25 -3 -14 -11 -22 -17 -18 -6 3
-7 1 -3 -5 4 -7 3 -12 -2 -12 -5 0 -8 -11 -7 -24 2 -15 -3 -27 -12 -30 -9 -4
-13 -13 -9 -22 3 -8 2 -12 -4 -9 -6 3 -10 -3 -10 -14 0 -11 -8 -25 -17 -30
-10 -6 -14 -11 -9 -11 5 0 2 -8 -5 -17 -9 -11 -10 -14 -2 -9 9 5 11 2 7 -8 -3
-9 -10 -13 -15 -10 -8 5 -13 -9 -10 -28 0 -5 -3 -8 -8 -8 -6 0 -8 -9 -6 -20 2
-12 -2 -23 -8 -26 -18 -6 -19 -44 -1 -51 8 -3 14 -13 14 -22 0 -9 6 -23 13
-30 10 -11 9 -13 -3 -7 -9 5 -9 2 2 -7 10 -8 15 -17 11 -20 -3 -4 -1 -7 6 -7
7 0 11 -6 8 -14 -3 -8 3 -26 14 -39 10 -14 19 -30 19 -37 0 -6 4 -8 10 -5 6 4
7 -1 3 -11 -4 -12 -3 -15 6 -10 6 4 11 4 10 -1 -4 -24 2 -43 12 -37 7 4 6 -2
-2 -17 -11 -22 -11 -23 5 -10 14 12 16 12 10 -4 -5 -13 -4 -16 5 -10 10 6 11
3 2 -13 -9 -17 -8 -22 9 -27 18 -6 26 -31 20 -60 -1 -5 1 -7 5 -3 13 12 34
-16 23 -29 -7 -9 -7 -13 2 -13 9 0 8 -5 -3 -18 -14 -15 -15 -19 -2 -19 8 0 12
3 10 7 -2 4 2 7 10 8 8 1 21 3 28 4 8 1 14 7 14 14 0 7 -7 10 -16 7 -9 -2 -4
3 12 12 15 8 27 18 27 21 0 3 -4 2 -10 -1 -5 -3 -10 -2 -10 3 0 6 7 13 16 16
9 4 14 13 10 21 -3 8 -1 15 5 15 6 0 8 7 5 16 -3 8 -2 12 4 9 6 -3 10 1 10 9
0 8 6 14 13 12 6 -1 9 -1 5 1 -12 7 -9 31 4 39 7 5 8 3 3 -6 -5 -9 -4 -11 4
-6 9 6 9 11 0 22 -9 11 -8 14 4 14 11 0 15 7 12 20 -3 13 0 18 7 14 7 -5 9 0
6 14 -4 16 -2 19 10 15 11 -5 14 -2 9 10 -3 9 -1 19 5 23 7 5 8 2 3 -6 -5 -9
-4 -11 4 -6 9 6 9 11 0 22 -8 10 -8 14 0 14 6 0 11 7 11 16 0 8 5 12 11 8 8
-4 9 1 4 16 -6 19 -4 22 10 16 15 -5 16 -4 5 9 -7 8 -10 16 -6 16 3 1 10 2 15
3 5 0 13 5 18 10 5 5 3 6 -4 2 -19 -10 -16 4 5 27 9 11 11 17 5 13 -9 -5 -11
-2 -7 9 5 13 9 13 22 3 12 -10 14 -10 8 0 -13 21 5 35 19 15 10 -14 11 -21 2
-32 -9 -12 -9 -13 1 -7 7 4 12 2 12 -8 0 -8 5 -16 10 -18 6 -2 12 -13 13 -26
0 -12 5 -22 10 -22 4 0 6 -4 3 -9 -3 -5 1 -12 10 -15 9 -4 14 -13 10 -21 -3
-9 0 -15 9 -15 8 0 15 -4 15 -10 0 -5 -8 -6 -17 -3 -11 4 -7 -3 10 -19 15 -14
27 -33 27 -42 0 -10 5 -14 12 -10 7 4 8 3 4 -5 -4 -6 -2 -19 6 -28 11 -14 11
-16 0 -9 -11 7 -12 4 -3 -13 7 -11 14 -21 17 -21 3 0 2 5 -2 12 -5 7 -3 8 5 4
7 -5 10 -14 7 -22 -3 -8 -1 -14 3 -14 5 0 8 -11 6 -25 -2 -22 0 -23 13 -13 11
9 14 9 9 1 -4 -6 -2 -15 4 -18 5 -4 8 -12 6 -19 -6 -14 18 -37 29 -28 5 4 2
-2 -6 -12 -12 -16 -12 -18 -1 -12 9 6 12 5 9 -5 -2 -7 3 -20 12 -29 9 -8 10
-11 1 -5 -12 9 -12 7 0 -15 7 -14 13 -28 14 -32 0 -3 4 -10 9 -15 5 -5 6 -3 2
5 -10 18 -1 15 15 -5 10 -11 10 -14 2 -9 -7 4 -13 3 -13 -3 0 -5 5 -13 11 -16
7 -5 3 -15 -11 -30 -12 -13 -19 -28 -15 -34 6 -10 -7 -16 -28 -12 -5 1 -6 -3
-2 -9 7 -12 -16 -70 -28 -70 -5 0 -6 -4 -3 -9 7 -11 -22 -71 -34 -71 -5 0 -7
-7 -4 -15 4 -8 1 -15 -6 -15 -10 0 -10 -3 -1 -14 9 -11 8 -14 -5 -12 -9 0 -19
-6 -21 -14 -4 -13 -3 -13 6 0 8 11 11 11 11 2 0 -7 -7 -15 -15 -18 -8 -4 -15
-13 -15 -21 0 -8 -7 -21 -15 -29 -18 -19 -20 -38 -2 -28 12 8 -21 -36 -37 -47
-5 -4 -5 -12 -1 -19 4 -7 -4 -4 -19 5 -25 17 -26 17 -19 -1 6 -16 5 -17 -9 -6
-11 9 -18 10 -23 2 -3 -6 -11 -8 -16 -4 -5 3 -7 10 -4 15 4 5 1 9 -4 9 -6 0
-11 -8 -12 -17 0 -12 -2 -13 -6 -5 -4 10 -8 10 -21 0 -12 -10 -14 -10 -8 -1 4
7 2 13 -3 13 -6 0 -11 -6 -11 -12 0 -9 -4 -8 -10 2 -9 13 -11 13 -20 0 -6 -9
-10 -10 -10 -3 0 14 -42 13 -52 -2 -5 -6 -8 -6 -8 3 0 6 -5 12 -11 12 -5 0 -7
-6 -3 -12 6 -10 4 -10 -7 -1 -17 17 -32 17 -23 0 6 -9 4 -9 -7 0 -7 7 -17 13
-22 13 -4 0 -5 -6 -1 -13 6 -9 4 -9 -7 1 -15 14 -33 17 -25 4 3 -5 -1 -9 -9
-9 -8 0 -12 4 -9 9 3 4 -4 8 -15 8 -12 0 -21 -6 -21 -12 0 -9 -4 -8 -10 2 -8
13 -13 13 -31 2 -11 -8 -18 -9 -14 -3 3 6 -1 11 -9 11 -9 0 -16 -6 -16 -12 0
-9 -3 -9 -9 1 -6 9 -15 11 -27 6 -31 -13 -39 -13 -59 1 -14 10 -15 14 -4 14
12 0 12 2 -1 10 -11 7 -11 10 -2 10 7 0 11 4 8 9 -3 5 1 12 10 15 9 4 14 13
10 21 -3 8 -1 15 5 15 6 0 8 4 4 9 -3 5 0 13 6 16 5 4 8 13 5 21 -3 8 0 13 7
11 6 -1 13 8 15 20 2 13 8 23 13 23 5 0 9 5 9 11 0 5 -5 7 -12 3 -7 -4 -8 -3
-4 5 5 8 12 9 20 2 8 -7 12 -5 12 9 0 10 -4 16 -8 14 -4 -3 -5 2 -2 10 3 8 12
12 19 10 7 -3 13 1 12 8 -1 40 6 60 31 83 22 21 23 25 7 20 -20 -7 -20 -6 -1
9 11 9 21 23 22 33 2 9 8 19 14 23 9 6 9 9 -1 13 -10 4 -9 6 4 6 17 1 19 7 21
59 1 23 -3 27 -23 24 -16 -3 -21 0 -16 8 5 9 1 8 -16 -1 -27 -14 -70 -19 -63
-7 3 4 0 8 -6 8 -6 0 -8 5 -4 12 4 7 3 8 -5 4 -6 -4 -8 -13 -4 -19 3 -7 -4 -3
-18 8 -14 12 -19 14 -11 4 10 -14 10 -18 -2 -22 -9 -4 -18 -1 -22 5 -5 7 -2 8
7 3 12 -8 12 -6 0 8 -15 18 -26 23 -16 7 3 -5 -1 -10 -9 -10 -23 0 -31 4 -29
12 2 5 -2 8 -8 8 -6 0 -8 -9 -4 -22 4 -13 3 -18 -2 -12 -4 6 -23 10 -40 9 -22
-2 -31 1 -26 9 3 6 3 8 -2 4 -4 -4 -15 -2 -24 5 -14 10 -14 10 -4 -3 10 -14 7
-16 -22 -16 -18 0 -32 3 -30 6 2 4 -2 7 -10 7 -8 0 -12 -4 -10 -8 3 -4 -2 -9
-9 -12 -10 -4 -13 0 -11 14 2 10 0 19 -6 19 -5 0 -9 -7 -9 -16 0 -9 -5 -12
-12 -8 -8 5 -9 2 -5 -10 6 -14 3 -17 -9 -12 -10 4 -14 1 -11 -6 2 -7 -3 -19
-12 -26 -10 -8 -10 -11 -2 -6 10 5 12 3 5 -7 -9 -14 -10 -19 -13 -40 0 -6 -7
-9 -15 -6 -10 4 -13 -3 -11 -24 2 -21 -4 -35 -22 -48 -15 -13 -20 -22 -13 -26
8 -5 4 -12 -10 -22 -11 -8 -20 -20 -19 -26 3 -25 -1 -38 -11 -32 -9 5 -14 -17
-7 -30 1 -2 -7 -11 -18 -20 -11 -9 -13 -13 -5 -9 12 7 13 5 3 -8 -7 -8 -9 -19
-5 -23 4 -5 1 -5 -6 -1 -6 4 -12 2 -12 -3 0 -20 -3 -26 -19 -39 -9 -8 -10 -11
-3 -7 6 3 12 1 12 -4 0 -6 -7 -11 -15 -11 -9 0 -12 -6 -8 -17 4 -11 3 -14 -5
-9 -8 5 -10 2 -6 -9 4 -9 -1 -21 -10 -28 -10 -7 -17 -17 -16 -22 5 -21 -1 -36
-10 -30 -5 3 -10 -3 -10 -14 0 -12 -5 -21 -11 -21 -8 0 -8 -4 0 -14 9 -10 7
-17 -6 -27 -16 -13 -17 -12 -4 4 8 11 9 17 2 17 -6 0 -13 -12 -17 -27 -10 -47
-14 -54 -24 -48 -6 3 -7 -1 -4 -9 4 -9 1 -16 -6 -16 -10 0 -10 -3 -1 -14 13
-16 -1 -32 -18 -21 -6 3 -8 -4 -6 -15 2 -12 -2 -23 -10 -27 -8 -3 -15 -9 -15
-15 0 -5 4 -6 10 -3 6 3 7 -1 4 -9 -3 -9 -10 -13 -15 -10 -8 5 -13 -9 -10 -28
0 -5 -3 -8 -9 -8 -5 0 -10 -5 -10 -11 0 -5 5 -7 12 -3 7 4 8 3 4 -4 -4 -7 -14
-12 -22 -12 -8 0 -12 -5 -9 -10 4 -6 1 -17 -5 -25 -6 -8 -9 -19 -5 -24 4 -7
-1 -8 -12 -4 -16 6 -16 5 -4 -11 11 -13 11 -16 1 -14 -7 2 -15 -3 -18 -11 -2
-8 -1 -11 4 -8 5 3 9 -5 9 -18 0 -14 -5 -21 -12 -18 -7 3 -10 10 -6 16 3 6 1
7 -5 3 -6 -3 -10 -14 -9 -24 1 -20 46 -25 59 -7 5 7 8 6 8 0 0 -15 61 -18 94
-5 18 6 25 6 21 0 -4 -6 10 -10 34 -10 22 0 51 4 66 10 17 7 24 7 20 0 -4 -6
14 -10 45 -10 35 0 49 4 44 11 -4 8 -1 8 12 1 25 -13 163 -13 188 0 11 6 16 6
13 0 -4 -5 36 -9 103 -10 65 0 108 3 105 9 -4 5 6 4 21 -2 37 -13 86 -8 102
11 11 13 11 13 7 -1 -5 -13 4 -15 47 -16 36 0 57 5 64 15 9 12 13 12 19 2 5
-9 4 -11 -3 -6 -7 4 -12 3 -12 -2 0 -16 104 -10 116 6 9 12 12 13 19 2 5 -9 4
-11 -3 -6 -7 4 -12 3 -12 -2 0 -4 72 -8 160 -8 88 0 160 4 160 8 0 5 -5 6 -12
2 -7 -5 -8 -3 -3 6 6 10 10 10 19 -2 13 -17 75 -20 95 -4 11 8 13 8 7 -1 -4
-7 -2 -13 3 -13 6 0 11 6 11 13 0 8 2 9 8 1 9 -14 104 -13 114 1 5 6 8 6 8 -2
0 -14 102 -13 112 2 5 7 8 7 8 0 0 -15 61 -18 94 -5 15 5 25 6 22 1 -8 -13
264 -11 288 1 12 7 16 7 12 0 -3 -6 33 -9 96 -10 83 0 105 3 115 17 11 14 12
14 8 0 -4 -10 0 -16 10 -16 12 0 15 7 12 23 -2 13 0 21 4 18 12 -7 11 7 -1 26
-5 8 -10 11 -10 5 0 -11 -20 16 -20 28 0 5 6 5 13 2 6 -4 3 1 -7 9 -11 9 -16
16 -11 16 5 0 0 7 -11 15 -15 12 -16 16 -6 23 11 7 10 10 -3 16 -9 3 -13 10
-10 16 3 5 2 10 -4 10 -5 0 -12 -6 -14 -12 -3 -7 -3 2 0 20 3 20 1 32 -6 32
-6 0 -11 10 -11 23 0 18 -2 19 -10 7 -7 -11 -10 -7 -10 18 0 20 -5 32 -13 32
-8 0 -14 6 -14 13 0 6 -4 21 -9 31 -5 15 -4 17 6 11 9 -5 11 -4 6 4 -4 6 -11
9 -16 6 -12 -7 -28 17 -25 38 2 9 -1 17 -6 17 -5 0 -9 7 -9 15 0 8 -4 15 -10
15 -5 0 -10 5 -10 11 0 5 6 7 13 3 13 -8 -9 23 -29 41 -6 6 -14 19 -18 29 -6
17 -4 17 11 5 14 -11 14 -9 -2 11 -11 14 -24 28 -28 31 -5 3 -9 10 -9 15 -1 5
-7 19 -15 31 -8 12 -12 27 -8 33 3 5 1 10 -5 10 -7 0 -9 7 -6 16 4 11 2 15 -7
11 -8 -3 -14 3 -14 15 -1 11 -10 29 -19 40 -17 18 -17 19 1 12 13 -5 16 -4 11
4 -4 7 -13 12 -19 12 -7 0 -14 10 -14 22 -1 13 -7 24 -13 26 -5 2 -8 8 -4 13
3 5 1 9 -5 9 -6 0 -7 7 -4 17 4 11 3 14 -5 9 -8 -5 -12 0 -12 14 0 12 -4 18
-11 15 -6 -4 -10 -1 -8 6 3 27 -1 38 -18 42 -17 4 -17 5 0 6 10 0 15 6 12 11
-4 6 -11 7 -17 4 -7 -5 -9 1 -5 16 4 17 1 23 -14 27 -16 5 -18 8 -7 14 11 7
11 9 -1 9 -8 0 -11 6 -7 16 3 8 2 12 -4 9 -6 -3 -10 1 -10 10 0 10 -5 13 -12
9 -7 -4 -8 -3 -4 5 4 6 3 17 -2 24 -5 7 -8 20 -7 30 3 15 1 16 -11 6 -12 -10
-13 -9 -8 6 5 13 4 16 -4 11 -8 -4 -10 -2 -6 7 3 8 1 18 -5 22 -6 3 -11 15
-11 26 0 10 -4 19 -10 19 -5 0 -9 3 -8 8 4 14 -13 52 -23 52 -6 0 -7 9 -4 21
5 15 4 19 -4 15 -6 -4 -11 0 -11 9 0 9 -4 14 -9 11 -4 -3 -7 5 -6 19 3 18 -1
22 -13 17 -14 -5 -15 -3 -5 9 10 12 8 17 -8 27 -10 7 -19 18 -19 25 0 8 4 7
10 -3 5 -8 10 -10 10 -4 0 16 -25 35 -34 27 -4 -4 -4 0 -1 9 3 8 -1 22 -9 30
-11 12 -12 18 -3 28 10 10 8 12 -7 6 -14 -5 -17 -2 -12 9 3 8 1 15 -5 15 -6 0
-8 4 -5 9 3 4 -3 16 -14 26 -11 10 -16 24 -13 33 5 11 3 13 -8 7 -12 -8 -12
-6 0 8 11 14 11 17 0 18 -8 1 -18 1 -23 0 -5 -1 -4 5 4 13 11 15 7 20 -12 17
-4 0 -5 6 -2 14 3 8 -2 22 -11 31 -9 9 -14 23 -11 31 3 7 -1 16 -9 19 -15 6
-29 38 -34 75 0 5 -5 8 -10 5 -5 -3 -12 1 -15 10 -4 9 -2 13 5 8 8 -4 7 0 0
15 -7 11 -17 21 -24 21 -8 0 -8 3 1 9 11 6 10 10 -3 15 -14 5 -15 9 -4 22 10
12 9 16 -7 20 -10 3 -27 21 -37 40 -9 20 -13 33 -7 29 5 -3 10 -1 10 4 0 6 -7
11 -16 11 -11 0 -13 6 -9 19 3 11 0 23 -6 27 -8 4 -9 3 -5 -4 12 -19 2 -14
-18 10 -15 18 -16 20 -2 15 9 -4 16 -2 16 3 0 6 -5 10 -11 10 -5 0 -7 5 -4 10
3 6 -2 10 -12 10 -15 0 -16 2 -3 10 13 8 12 10 -3 10 -14 0 -17 5 -12 21 5 15
4 19 -4 15 -7 -5 -11 1 -11 14 0 16 -5 20 -15 16 -8 -3 -15 -1 -15 4 0 6 5 10
12 10 6 0 3 7 -8 16 -10 8 -13 13 -6 9 17 -9 15 3 -3 22 -8 8 -13 19 -10 24 4
5 -1 9 -9 9 -9 0 -16 5 -16 11 0 5 6 7 13 3 9 -6 9 -5 0 8 -7 8 -9 19 -5 23 4
5 1 5 -5 1 -12 -7 -18 12 -14 38 1 5 -5 6 -13 3 -11 -4 -13 -1 -9 10 4 11 2
14 -5 9 -8 -5 -10 -1 -5 10 4 12 3 15 -5 10 -7 -4 -12 -2 -12 3 0 6 5 11 12
11 8 0 6 5 -3 13 -8 6 -22 21 -29 31 -12 16 -13 18 -1 11 10 -5 12 -4 7 3 -11
18 -56 15 -56 -4z m-393 -1179 c0 -8 -4 -12 -9 -9 -5 3 -6 10 -3 15 9 13 12
11 12 -6z m-649 -1390 c-3 -3 -9 2 -12 12 -6 14 -5 15 5 6 7 -7 10 -15 7 -18z
m-68 0 c0 -2 -9 -3 -19 -2 -11 0 -18 5 -15 9 4 6 34 0 34 -7z m425 5 c3 -5 1
-10 -4 -10 -6 0 -11 5 -11 10 0 6 2 10 4 10 3 0 8 -4 11 -10z m80 0 c-3 -5
-12 -10 -18 -10 -7 0 -6 4 3 10 19 12 23 12 15 0z m40 0 c3 -5 1 -10 -4 -10
-6 0 -11 5 -11 10 0 6 2 10 4 10 3 0 8 -4 11 -10z m89 2 c2 -4 -5 -9 -17 -9
-17 -2 -19 0 -7 7 18 12 18 12 24 2z m120 -3 c3 -3 -4 -5 -14 -6 -11 -1 -22 2
-24 6 -5 8 30 8 38 0z m131 2 c-8 -7 -45 -9 -50 -1 -2 3 9 6 25 6 17 0 27 -2
25 -5z m125 5 c0 -3 -4 -8 -10 -11 -5 -3 -10 -1 -10 4 0 6 5 11 10 11 6 0 10
-2 10 -4z m120 0 c0 -2 -7 -7 -16 -10 -8 -3 -12 -2 -9 4 6 10 25 14 25 6z m45
-6 c3 -6 -1 -7 -9 -4 -18 7 -21 14 -7 14 6 0 13 -4 16 -10z m75 6 c0 -2 -7 -7
-16 -10 -8 -3 -12 -2 -9 4 6 10 25 14 25 6z m54 -8 c-3 -4 -11 -5 -19 -1 -21
7 -19 12 4 10 11 0 18 -5 15 -9z m126 8 c0 -3 -4 -8 -10 -11 -5 -3 -10 -1 -10
4 0 6 5 11 10 11 6 0 10 -2 10 -4z m120 0 c0 -2 -7 -7 -16 -10 -8 -3 -12 -2
-9 4 6 10 25 14 25 6z m130 -11 c0 -2 -9 -3 -19 -2 -11 0 -18 5 -15 9 4 6 34
0 34 -7z m425 5 c3 -5 1 -10 -4 -10 -6 0 -11 5 -11 10 0 6 2 10 4 10 3 0 8 -4
11 -10z m80 0 c-3 -5 -12 -10 -18 -10 -7 0 -6 4 3 10 19 12 23 12 15 0z m40 0
c3 -5 1 -10 -4 -10 -6 0 -11 5 -11 10 0 6 2 10 4 10 3 0 8 -4 11 -10z m89 2
c2 -4 -5 -9 -17 -9 -17 -2 -19 0 -7 7 18 12 18 12 24 2z"/>
<path d="M996 1072 c-3 -5 1 -9 9 -9 8 0 12 4 9 9 -3 4 -7 8 -9 8 -2 0 -6 -4
-9 -8z"/>
<path d="M1560 970 c-8 -5 -12 -12 -9 -15 4 -3 12 1 19 10 14 17 11 19 -10 5z"/>
<path d="M420 900 c-9 -6 -10 -10 -3 -10 6 0 15 5 18 10 8 12 4 12 -15 0z"/>
<path d="M905 849 c-4 -6 -5 -12 -2 -15 2 -3 7 2 10 11 7 17 1 20 -8 4z"/>
</g>
</svg>
