<?xml version="1.0" encoding="UTF-8" standalone="no"?>
<svg width="18px" height="24px" viewBox="0 0 18 24" version="1.1" xmlns="http://www.w3.org/2000/svg" xmlns:xlink="http://www.w3.org/1999/xlink">
    <!-- Generator: sketchtool 50.2 (55047) - http://www.bohemiancoding.com/sketch -->
    <title>EDA7D84C-6850-4C9D-BB88-5CAC5C9FD15D</title>
    <desc>Created with sketchtool.</desc>
    <defs></defs>
    <g id="Page-1" stroke="none" stroke-width="1" fill="none" fill-rule="evenodd">
        <g id="09-Contact" transform="translate(-375.000000, -760.000000)" fill="#5B5C59">
            <g id="Group-2" transform="translate(373.000000, 704.000000)">
                <path d="M10.5247351,60.006391 C8.91196164,60.006391 7.59973131,61.2414251 7.59973131,62.7598199 C7.59973131,64.2782147 8.91196164,65.5132488 10.5247351,65.5132488 C12.1380376,65.5132488 13.4502679,64.2782147 13.4502679,62.7598199 C13.4502679,61.2414251 12.1380376,60.006391 10.5247351,60.006391 L10.5247351,60.006391 Z M10.5247351,64.7662524 C9.34954813,64.7662524 8.39341901,63.8663706 8.39341901,62.7598199 C8.39341901,61.6532691 9.34954813,60.7533874 10.5247351,60.7533874 C11.699922,60.7533874 12.6565802,61.6532691 12.6565802,62.7598199 C12.6565802,63.8663706 11.699922,64.7662524 10.5247351,64.7662524 L10.5247351,64.7662524 Z M10.5247351,56 C5.82398735,56 2,59.8694416 2,64.626315 C2,72.1714772 9.90989165,79.581184 10.2464152,79.8929305 C10.3236675,79.9641442 10.4242013,80 10.5247351,80 C10.6242106,80 10.7236861,79.9651402 10.8009384,79.8949225 C11.137462,79.588654 19.0499992,72.2974706 19.0499992,64.626315 C19.0499992,59.8694416 15.2254828,56 10.5247351,56 L10.5247351,56 Z M10.5268516,79.0931463 C9.11620395,77.6977569 2.7936877,71.0828544 2.7936877,64.626315 C2.7936877,60.2812857 6.26210297,56.7469965 10.5247351,56.7469965 C14.7878963,56.7469965 18.2563115,60.2812857 18.2563115,64.626315 C18.2563115,71.1884299 11.941203,77.7136929 10.5268516,79.0931463 L10.5268516,79.0931463 Z" id="Location-Icon"></path>
            </g>
        </g>
    </g>
</svg>