<?xml version="1.0" encoding="UTF-8" standalone="no"?>
<svg width="18px" height="24px" viewBox="0 0 18 24" version="1.1" xmlns="http://www.w3.org/2000/svg" xmlns:xlink="http://www.w3.org/1999/xlink">
    <!-- Generator: sketchtool 50.2 (55047) - http://www.bohemiancoding.com/sketch -->
    <title>E2A48CD2-7483-4996-A087-4562B26405D2</title>
    <desc>Created with sketchtool.</desc>
    <defs></defs>
    <g id="Page-1" stroke="none" stroke-width="1" fill="none" fill-rule="evenodd">
        <g id="10-CONTACT" transform="translate(-28.000000, -429.000000)" fill="#5B5C59">
            <g id="Group-2" transform="translate(26.000000, 387.000000)">
                <path d="M10.5247351,46.006391 C8.91196164,46.006391 7.59973131,47.2414251 7.59973131,48.7598199 C7.59973131,50.2782147 8.91196164,51.5132488 10.5247351,51.5132488 C12.1380376,51.5132488 13.4502679,50.2782147 13.4502679,48.7598199 C13.4502679,47.2414251 12.1380376,46.006391 10.5247351,46.006391 L10.5247351,46.006391 Z M10.5247351,50.7662524 C9.34954813,50.7662524 8.39341901,49.8663706 8.39341901,48.7598199 C8.39341901,47.6532691 9.34954813,46.7533874 10.5247351,46.7533874 C11.699922,46.7533874 12.6565802,47.6532691 12.6565802,48.7598199 C12.6565802,49.8663706 11.699922,50.7662524 10.5247351,50.7662524 L10.5247351,50.7662524 Z M10.5247351,42 C5.82398735,42 2,45.8694416 2,50.626315 C2,58.1714772 9.90989165,65.581184 10.2464152,65.8929305 C10.3236675,65.9641442 10.4242013,66 10.5247351,66 C10.6242106,66 10.7236861,65.9651402 10.8009384,65.8949225 C11.137462,65.588654 19.0499992,58.2974706 19.0499992,50.626315 C19.0499992,45.8694416 15.2254828,42 10.5247351,42 L10.5247351,42 Z M10.5268516,65.0931463 C9.11620395,63.6977569 2.7936877,57.0828544 2.7936877,50.626315 C2.7936877,46.2812857 6.26210297,42.7469965 10.5247351,42.7469965 C14.7878963,42.7469965 18.2563115,46.2812857 18.2563115,50.626315 C18.2563115,57.1884299 11.941203,63.7136929 10.5268516,65.0931463 L10.5268516,65.0931463 Z" id="Location-Icon"></path>
            </g>
        </g>
    </g>
</svg>